<svg width="26" height="27" viewBox="0 0 26 27" fill="none" xmlns="http://www.w3.org/2000/svg">
<path d="M13.1282 16.3252C16.774 16.3252 19.8871 16.9032 19.8871 19.2162C19.8871 21.5282 16.794 22.1272 13.1282 22.1272C9.48233 22.1272 6.36928 21.5492 6.36928 19.2372C6.36928 16.9243 9.46235 16.3252 13.1282 16.3252ZM18.9575 14.9325C20.3513 14.9067 21.8498 15.098 22.4035 15.2339C23.5766 15.4646 24.3482 15.9354 24.6679 16.6196C24.9381 17.1813 24.9381 17.833 24.6679 18.3938C24.1789 19.4551 22.6024 19.7957 21.9896 19.8838C21.8631 19.9029 21.7613 19.7929 21.7746 19.6656C22.0876 16.7249 19.5978 15.3306 18.9537 15.01C18.9261 14.9957 18.9204 14.9736 18.9232 14.9602C18.9251 14.9507 18.9365 14.9354 18.9575 14.9325ZM7.14548 14.9305L7.40795 14.9329C7.42888 14.9357 7.43934 14.9511 7.44125 14.9597C7.4441 14.974 7.43839 14.9951 7.41175 15.0104C6.76669 15.331 4.27681 16.7252 4.58983 19.665C4.60315 19.7932 4.5023 19.9023 4.37576 19.8841C3.76305 19.7961 2.18654 19.4554 1.69751 18.3942C1.42635 17.8324 1.42635 17.1817 1.69751 16.62C2.01719 15.9358 2.78784 15.4649 3.96094 15.2334C4.51562 15.0984 6.01316 14.907 7.40795 14.9329L7.14548 14.9305ZM13.1282 5.12622C15.6104 5.12622 17.6008 7.12625 17.6008 9.6239C17.6008 12.1206 15.6104 14.1225 13.1282 14.1225C10.6459 14.1225 8.65555 12.1206 8.65555 9.6239C8.65555 7.12625 10.6459 5.12622 13.1282 5.12622ZM19.2001 5.87628C21.5977 5.87628 23.4805 8.14521 22.8393 10.6725C22.4064 12.374 20.8394 13.5041 19.0935 13.4582C18.9184 13.4534 18.7462 13.4372 18.5797 13.4085C18.4589 13.3874 18.398 13.2506 18.4665 13.1491C19.1325 12.1635 19.5121 10.9778 19.5121 9.70505C19.5121 8.3768 19.0973 7.1385 18.3771 6.12317C18.3543 6.09159 18.3371 6.04279 18.36 6.00643C18.379 5.97676 18.4142 5.96145 18.4475 5.95379C18.6901 5.90403 18.9394 5.87628 19.2001 5.87628ZM7.16391 5.87618C7.4246 5.87618 7.67387 5.90394 7.91743 5.9537C7.94978 5.96135 7.98594 5.97762 8.00496 6.00633C8.02685 6.04269 8.01067 6.0915 7.98784 6.12308C7.26761 7.1384 6.85279 8.3767 6.85279 9.70495C6.85279 10.9777 7.23241 12.1634 7.8984 13.149C7.96691 13.2505 7.90602 13.3873 7.78519 13.4084C7.61774 13.438 7.44648 13.4533 7.27142 13.4581C5.52556 13.5041 3.95856 12.3739 3.52567 10.6724C2.88346 8.14512 4.76632 5.87618 7.16391 5.87618Z" fill="#EFF2F4"/>
</svg>
