<svg width="20" height="20" viewBox="0 0 20 20" fill="none" xmlns="http://www.w3.org/2000/svg">
<path d="M10.653 5.9179C10.6992 5.96293 10.8968 6.13295 11.0594 6.29133C12.0819 7.21984 13.7554 9.64205 14.2662 10.9098C14.3483 11.1024 14.522 11.5891 14.5332 11.8492C14.5332 12.0984 14.4758 12.336 14.3595 12.5627C14.1969 12.8453 13.9411 13.072 13.6391 13.1962C13.4295 13.2761 12.8023 13.4004 12.7911 13.4004C12.105 13.5246 10.9901 13.5929 9.75804 13.5929C8.58417 13.5929 7.5147 13.5246 6.81819 13.4229C6.80703 13.4112 6.02764 13.287 5.76067 13.1512C5.27296 12.9019 4.97013 12.4152 4.97013 11.8942V11.8492C4.98208 11.5099 5.28491 10.7965 5.29607 10.7965C5.80769 9.59702 7.39915 7.23071 8.45666 6.27968C8.45666 6.27968 8.72842 6.01184 8.89816 5.89539C9.14202 5.71372 9.44405 5.62366 9.74609 5.62366C10.0832 5.62366 10.3972 5.72537 10.653 5.9179Z" fill="#5D7285"/>
</svg>
