<svg width="20" height="20" viewBox="0 0 20 20" fill="none" xmlns="http://www.w3.org/2000/svg">
<path d="M10.653 5.92718C10.6992 5.97221 10.8968 6.14223 11.0594 6.3006C12.0819 7.22912 13.7554 9.65133 14.2662 10.9191C14.3483 11.1116 14.522 11.5984 14.5332 11.8585C14.5332 12.1077 14.4758 12.3453 14.3595 12.572C14.1969 12.8545 13.9411 13.0812 13.6391 13.2055C13.4295 13.2854 12.8023 13.4096 12.7911 13.4096C12.105 13.5339 10.9901 13.6022 9.75804 13.6022C8.58417 13.6022 7.5147 13.5339 6.81819 13.4322C6.80703 13.4205 6.02764 13.2963 5.76067 13.1604C5.27296 12.9112 4.97013 12.4245 4.97013 11.9035V11.8585C4.98208 11.5192 5.28491 10.8058 5.29607 10.8058C5.80769 9.6063 7.39915 7.23999 8.45666 6.28896C8.45666 6.28896 8.72842 6.02112 8.89816 5.90466C9.14202 5.723 9.44405 5.63294 9.74609 5.63294C10.0832 5.63294 10.3972 5.73464 10.653 5.92718Z" fill="#5D7285"/>
</svg>
