<svg width="20" height="20" viewBox="0 0 20 20" fill="none" xmlns="http://www.w3.org/2000/svg">
<path d="M10.653 5.94219C10.6992 5.98722 10.8968 6.15724 11.0594 6.31562C12.0819 7.24413 13.7554 9.66634 14.2662 10.9341C14.3483 11.1267 14.522 11.6134 14.5332 11.8735C14.5332 12.1227 14.4758 12.3603 14.3595 12.587C14.1969 12.8696 13.9411 13.0963 13.6391 13.2205C13.4295 13.3004 12.8023 13.4247 12.7911 13.4247C12.105 13.5489 10.9901 13.6172 9.75804 13.6172C8.58417 13.6172 7.5147 13.5489 6.81819 13.4472C6.80703 13.4355 6.02764 13.3113 5.76067 13.1754C5.27296 12.9262 4.97013 12.4395 4.97013 11.9185V11.8735C4.98208 11.5342 5.28491 10.8208 5.29607 10.8208C5.80769 9.62131 7.39915 7.255 8.45666 6.30397C8.45666 6.30397 8.72842 6.03613 8.89816 5.91968C9.14202 5.73801 9.44405 5.64796 9.74609 5.64796C10.0832 5.64796 10.3972 5.74966 10.653 5.94219Z" fill="#5D7285"/>
</svg>
