<svg width="20" height="20" viewBox="0 0 20 20" fill="none" xmlns="http://www.w3.org/2000/svg">
<path d="M10.653 5.93609C10.6992 5.98112 10.8968 6.15114 11.0594 6.30951C12.0819 7.23803 13.7554 9.66024 14.2662 10.928C14.3483 11.1206 14.522 11.6073 14.5332 11.8674C14.5332 12.1166 14.4758 12.3542 14.3595 12.5809C14.1969 12.8635 13.9411 13.0902 13.6391 13.2144C13.4295 13.2943 12.8023 13.4185 12.7911 13.4185C12.105 13.5428 10.9901 13.6111 9.75804 13.6111C8.58417 13.6111 7.5147 13.5428 6.81819 13.4411C6.80703 13.4294 6.02764 13.3052 5.76067 13.1693C5.27296 12.9201 4.97013 12.4334 4.97013 11.9124V11.8674C4.98208 11.5281 5.28491 10.8147 5.29607 10.8147C5.80769 9.61521 7.39915 7.2489 8.45666 6.29787C8.45666 6.29787 8.72842 6.03003 8.89816 5.91358C9.14202 5.73191 9.44405 5.64185 9.74609 5.64185C10.0832 5.64185 10.3972 5.74355 10.653 5.93609Z" fill="#5D7285"/>
</svg>
