<svg width="20" height="20" viewBox="0 0 20 20" fill="none" xmlns="http://www.w3.org/2000/svg">
<path d="M10.653 5.93316C10.6992 5.97819 10.8968 6.14821 11.0594 6.30658C12.0819 7.2351 13.7554 9.65731 14.2662 10.9251C14.3483 11.1176 14.522 11.6044 14.5332 11.8645C14.5332 12.1137 14.4758 12.3512 14.3595 12.5779C14.1969 12.8605 13.9411 13.0872 13.6391 13.2114C13.4295 13.2914 12.8023 13.4156 12.7911 13.4156C12.105 13.5398 10.9901 13.6082 9.75804 13.6082C8.58417 13.6082 7.5147 13.5398 6.81819 13.4381C6.80703 13.4265 6.02764 13.3023 5.76067 13.1664C5.27296 12.9172 4.97013 12.4304 4.97013 11.9095V11.8645C4.98208 11.5252 5.28491 10.8117 5.29607 10.8117C5.80769 9.61228 7.39915 7.24597 8.45666 6.29494C8.45666 6.29494 8.72842 6.0271 8.89816 5.91065C9.14202 5.72898 9.44405 5.63892 9.74609 5.63892C10.0832 5.63892 10.3972 5.74063 10.653 5.93316Z" fill="#5D7285"/>
</svg>
