<svg width="20" height="20" viewBox="0 0 20 20" fill="none" xmlns="http://www.w3.org/2000/svg">
<path d="M10.653 5.93023C10.6992 5.97526 10.8968 6.14528 11.0594 6.30365C12.0819 7.23217 13.7554 9.65438 14.2662 10.9222C14.3483 11.1147 14.522 11.6015 14.5332 11.8615C14.5332 12.1108 14.4758 12.3483 14.3595 12.575C14.1969 12.8576 13.9411 13.0843 13.6391 13.2085C13.4295 13.2885 12.8023 13.4127 12.7911 13.4127C12.105 13.5369 10.9901 13.6052 9.75804 13.6052C8.58417 13.6052 7.5147 13.5369 6.81819 13.4352C6.80703 13.4236 6.02764 13.2993 5.76067 13.1635C5.27296 12.9143 4.97013 12.4275 4.97013 11.9066V11.8615C4.98208 11.5223 5.28491 10.8088 5.29607 10.8088C5.80769 9.60935 7.39915 7.24304 8.45666 6.29201C8.45666 6.29201 8.72842 6.02417 8.89816 5.90772C9.14202 5.72605 9.44405 5.63599 9.74609 5.63599C10.0832 5.63599 10.3972 5.7377 10.653 5.93023Z" fill="#5D7285"/>
</svg>
