<svg width="20" height="20" viewBox="0 0 20 20" fill="none" xmlns="http://www.w3.org/2000/svg">
<path d="M10.653 5.924C10.6992 5.96903 10.8968 6.13905 11.0594 6.29743C12.0819 7.22594 13.7554 9.64815 14.2662 10.9159C14.3483 11.1085 14.522 11.5952 14.5332 11.8553C14.5332 12.1045 14.4758 12.3421 14.3595 12.5688C14.1969 12.8514 13.9411 13.0781 13.6391 13.2023C13.4295 13.2822 12.8023 13.4065 12.7911 13.4065C12.105 13.5307 10.9901 13.599 9.75804 13.599C8.58417 13.599 7.5147 13.5307 6.81819 13.429C6.80703 13.4173 6.02764 13.2931 5.76067 13.1573C5.27296 12.908 4.97013 12.4213 4.97013 11.9003V11.8553C4.98208 11.5161 5.28491 10.8026 5.29607 10.8026C5.80769 9.60313 7.39915 7.23681 8.45666 6.28578C8.45666 6.28578 8.72842 6.01794 8.89816 5.90149C9.14202 5.71982 9.44405 5.62977 9.74609 5.62977C10.0832 5.62977 10.3972 5.73147 10.653 5.924Z" fill="#5D7285"/>
</svg>
