<svg width="20" height="20" viewBox="0 0 20 20" fill="none" xmlns="http://www.w3.org/2000/svg">
<path d="M10.653 5.93926C10.6992 5.98429 10.8968 6.15431 11.0594 6.31269C12.0819 7.2412 13.7554 9.66341 14.2662 10.9312C14.3483 11.1237 14.522 11.6105 14.5332 11.8706C14.5332 12.1198 14.4758 12.3573 14.3595 12.584C14.1969 12.8666 13.9411 13.0933 13.6391 13.2175C13.4295 13.2975 12.8023 13.4217 12.7911 13.4217C12.105 13.5459 10.9901 13.6143 9.75804 13.6143C8.58417 13.6143 7.5147 13.5459 6.81819 13.4442C6.80703 13.4326 6.02764 13.3084 5.76067 13.1725C5.27296 12.9233 4.97013 12.4365 4.97013 11.9156V11.8706C4.98208 11.5313 5.28491 10.8178 5.29607 10.8178C5.80769 9.61839 7.39915 7.25207 8.45666 6.30104C8.45666 6.30104 8.72842 6.0332 8.89816 5.91675C9.14202 5.73508 9.44405 5.64503 9.74609 5.64503C10.0832 5.64503 10.3972 5.74673 10.653 5.93926Z" fill="#5D7285"/>
</svg>
