<svg width="20" height="20" viewBox="0 0 20 20" fill="none" xmlns="http://www.w3.org/2000/svg">
<path d="M10.653 5.92095C10.6992 5.96598 10.8968 6.136 11.0594 6.29438C12.0819 7.22289 13.7554 9.6451 14.2662 10.9129C14.3483 11.1054 14.522 11.5922 14.5332 11.8523C14.5332 12.1015 14.4758 12.339 14.3595 12.5657C14.1969 12.8483 13.9411 13.075 13.6391 13.1992C13.4295 13.2792 12.8023 13.4034 12.7911 13.4034C12.105 13.5276 10.9901 13.5959 9.75804 13.5959C8.58417 13.5959 7.5147 13.5276 6.81819 13.4259C6.80703 13.4143 6.02764 13.2901 5.76067 13.1542C5.27296 12.905 4.97013 12.4182 4.97013 11.8973V11.8523C4.98208 11.513 5.28491 10.7995 5.29607 10.7995C5.80769 9.60007 7.39915 7.23376 8.45666 6.28273C8.45666 6.28273 8.72842 6.01489 8.89816 5.89844C9.14202 5.71677 9.44405 5.62672 9.74609 5.62672C10.0832 5.62672 10.3972 5.72842 10.653 5.92095Z" fill="#0C7FDA"/>
</svg>
