<svg width="26" height="27" viewBox="0 0 26 27" fill="none" xmlns="http://www.w3.org/2000/svg">
<path d="M13.1894 2.99829C16.037 2.99829 18.3782 5.23596 18.497 8.07132H18.4692C18.4726 8.15373 18.4567 8.2358 18.423 8.31111H18.5889C19.882 8.31111 21.2361 9.20739 21.7791 11.3711L21.8381 11.6264L22.6551 18.2086C23.243 22.4068 20.9462 24.1723 17.8129 24.2471L17.6028 24.2496H8.79422C5.60998 24.2496 3.15627 23.0892 3.69577 18.4943L3.73256 18.2086L4.55895 11.6264C4.96645 9.29631 6.33447 8.37725 7.65259 8.31458L7.79879 8.31111H7.88186C7.86785 8.23179 7.86785 8.15064 7.88186 8.07132C8.00069 5.23596 10.3418 2.99829 13.1894 2.99829ZM10.0995 11.8487C9.5809 11.8487 9.16046 12.2814 9.16046 12.8152C9.16046 13.3491 9.5809 13.7818 10.0995 13.7818C10.6182 13.7818 11.0386 13.3491 11.0386 12.8152L11.0313 12.694C10.9734 12.2174 10.5783 11.8487 10.0995 11.8487ZM16.2505 11.8487C15.7319 11.8487 15.3115 12.2814 15.3115 12.8152C15.3115 13.3491 15.7319 13.7818 16.2505 13.7818C16.7692 13.7818 17.1896 13.3491 17.1896 12.8152C17.1896 12.2814 16.7692 11.8487 16.2505 11.8487ZM13.1478 4.38216C11.1033 4.38216 9.4459 6.03385 9.4459 8.07132C9.45991 8.15064 9.45991 8.23179 9.4459 8.31111H16.8959C16.8664 8.23455 16.8507 8.15335 16.8497 8.07132C16.8497 6.03385 15.1923 4.38216 13.1478 4.38216Z" fill="#EFF2F4"/>
</svg>
