<svg width="26" height="27" viewBox="0 0 26 27" fill="none" xmlns="http://www.w3.org/2000/svg">
<path d="M8.84897 15.1822C10.3472 15.1822 11.5479 16.3946 11.5479 17.9034V21.5257C11.5479 23.0239 10.3472 24.2458 8.84897 24.2458H5.25751C3.76992 24.2458 2.55859 23.0239 2.55859 21.5257V17.9034C2.55859 16.3946 3.76992 15.1822 5.25751 15.1822H8.84897ZM21.1111 15.1822C22.5987 15.1822 23.81 16.3946 23.81 17.9034V21.5257C23.81 23.0239 22.5987 24.2458 21.1111 24.2458H17.5196C16.0214 24.2458 14.8207 23.0239 14.8207 21.5257V17.9034C14.8207 16.3946 16.0214 15.1822 17.5196 15.1822H21.1111ZM8.84897 2.99487C10.3472 2.99487 11.5479 4.21682 11.5479 5.7161V9.33838C11.5479 10.8472 10.3472 12.0585 8.84897 12.0585H5.25751C3.76992 12.0585 2.55859 10.8472 2.55859 9.33838V5.7161C2.55859 4.21682 3.76992 2.99487 5.25751 2.99487H8.84897ZM21.1111 2.99487C22.5987 2.99487 23.81 4.21682 23.81 5.7161V9.33838C23.81 10.8472 22.5987 12.0585 21.1111 12.0585H17.5196C16.0214 12.0585 14.8207 10.8472 14.8207 9.33838V5.7161C14.8207 4.21682 16.0214 2.99487 17.5196 2.99487H21.1111Z" fill="#EFF2F4"/>
</svg>
