<svg width="26" height="27" viewBox="0 0 26 27" fill="none" xmlns="http://www.w3.org/2000/svg">
<path d="M17.6374 2.99182C20.9196 2.99182 22.7472 4.88319 22.7472 8.12401V19.1003C22.7472 22.3942 20.9196 24.2431 17.6374 24.2431H8.73203C5.50183 24.2431 3.62109 22.3942 3.62109 19.1003V8.12401C3.62109 4.88319 5.50183 2.99182 8.73203 2.99182H17.6374ZM9.01892 17.5915C8.70015 17.5596 8.39201 17.7083 8.222 17.9846C8.05199 18.2502 8.05199 18.6009 8.222 18.8772C8.39201 19.1428 8.70015 19.3022 9.01892 19.2597H17.3494C17.7734 19.2172 18.0932 18.8548 18.0932 18.4309C18.0932 17.9952 17.7734 17.634 17.3494 17.5915H9.01892ZM17.3494 12.7451H9.01892C8.56095 12.7451 8.19012 13.1181 8.19012 13.575C8.19012 14.0319 8.56095 14.4038 9.01892 14.4038H17.3494C17.8063 14.4038 18.1782 14.0319 18.1782 13.575C18.1782 13.1181 17.8063 12.7451 17.3494 12.7451ZM12.1949 7.93274H9.01892V7.94337C8.56095 7.94337 8.19012 8.31527 8.19012 8.77217C8.19012 9.22907 8.56095 9.60097 9.01892 9.60097H12.1949C12.6529 9.60097 13.0248 9.22907 13.0248 8.76048C13.0248 8.30464 12.6529 7.93274 12.1949 7.93274Z" fill="#EFF2F4"/>
</svg>
