<svg width="26" height="27" viewBox="0 0 26 27" fill="none" xmlns="http://www.w3.org/2000/svg">
<path d="M18.1414 2.99658C19.6699 2.90105 21.1772 3.43178 22.313 4.47202C23.3532 5.60778 23.884 7.11507 23.7991 8.65419V18.5683C23.8946 20.1074 23.3532 21.6147 22.3236 22.7505C21.1878 23.7907 19.6699 24.3214 18.1414 24.2259H8.22723C6.6881 24.3214 5.1808 23.7907 4.04503 22.7505C3.00478 21.6147 2.47404 20.1074 2.56958 18.5683V8.65419C2.47404 7.11507 3.00478 5.60778 4.04503 4.47202C5.1808 3.43178 6.6881 2.90105 8.22723 2.99658H18.1414ZM17.8654 7.84748C17.2073 7.18937 16.1458 7.18937 15.4877 7.84748L14.7765 8.56927C14.6704 8.67542 14.6704 8.85587 14.7765 8.96202C14.7765 8.96202 14.7974 8.98272 14.8345 9.01959L15.0955 9.27925C15.2466 9.42952 15.4351 9.61718 15.6244 9.80588L16.2663 10.4475C16.4002 10.582 16.489 10.6722 16.4961 10.6816C16.6129 10.809 16.6872 10.9788 16.6872 11.1699C16.6872 11.552 16.3794 11.8704 15.9866 11.8704C15.8062 11.8704 15.6363 11.7961 15.5196 11.6794L13.7469 9.91734C13.662 9.83242 13.5134 9.83242 13.4285 9.91734L8.36523 14.9805C8.01494 15.3308 7.81326 15.7979 7.80265 16.2967L7.73896 18.8124C7.73896 18.9504 7.78142 19.0778 7.87695 19.1733C7.97248 19.2689 8.09986 19.3219 8.23785 19.3219H10.7323C11.2418 19.3219 11.7301 19.1202 12.1016 18.7593L19.2453 11.5945C19.8928 10.9363 19.8928 9.87488 19.2453 9.22738L17.8654 7.84748Z" fill="white"/>
</svg>
