<svg width="26" height="27" viewBox="0 0 26 27" fill="none" xmlns="http://www.w3.org/2000/svg">
<path d="M20.1559 15.7788C22.1747 15.7788 23.8099 17.3865 23.8099 19.3699C23.8099 21.3522 22.1747 22.9599 20.1559 22.9599C18.1382 22.9599 16.5018 21.3522 16.5018 19.3699C16.5018 17.3865 18.1382 15.7788 20.1559 15.7788ZM11.1476 17.8385C12.0319 17.8385 12.7497 18.5437 12.7497 19.4125C12.7497 20.2801 12.0319 20.9865 11.1476 20.9865H4.1607C3.27641 20.9865 2.55859 20.2801 2.55859 19.4125C2.55859 18.5437 3.27641 17.8385 4.1607 17.8385H11.1476ZM6.21261 4.06982C8.23147 4.06982 9.86663 5.67747 9.86663 7.65976C9.86663 9.64322 8.23147 11.2509 6.21261 11.2509C4.19493 11.2509 2.55859 9.64322 2.55859 7.65976C2.55859 5.67747 4.19493 4.06982 6.21261 4.06982ZM22.209 6.08692C23.0921 6.08692 23.8099 6.79214 23.8099 7.65976C23.8099 8.52854 23.0921 9.23377 22.209 9.23377H15.222C14.3378 9.23377 13.6199 8.52854 13.6199 7.65976C13.6199 6.79214 14.3378 6.08692 15.222 6.08692H22.209Z" fill="#EFF2F4"/>
</svg>
