<svg width="26" height="27" viewBox="0 0 26 27" fill="none" xmlns="http://www.w3.org/2000/svg">
<path d="M10.1378 22.9304V19.6814C10.1378 18.852 10.815 18.1797 11.6505 18.1797H14.7045C15.1057 18.1797 15.4905 18.3379 15.7741 18.6195C16.0578 18.9011 16.2172 19.2831 16.2172 19.6814V22.9304C16.2147 23.2752 16.3509 23.6068 16.5956 23.8515C16.8403 24.0962 17.1733 24.2338 17.5206 24.2338H19.6042C20.5773 24.2363 21.5114 23.8543 22.2004 23.1721C22.8894 22.4899 23.2766 21.5636 23.2766 20.5975V11.3416C23.2766 10.5612 22.9282 9.82104 22.3252 9.32039L15.2373 3.7007C14.0043 2.71537 12.2377 2.74719 11.0416 3.77626L4.1154 9.32039C3.48395 9.80628 3.10654 10.5487 3.08789 11.3416V20.5881C3.08789 22.6016 4.73208 24.2338 6.7603 24.2338H8.79629C9.51771 24.2338 10.104 23.656 10.1092 22.9399L10.1378 22.9304Z" fill="#EFF2F4"/>
</svg>
