<svg width="26" height="27" viewBox="0 0 26 27" fill="none" xmlns="http://www.w3.org/2000/svg">
<path d="M17.7892 2.98865C21.3905 2.98865 23.8099 5.51554 23.8099 9.27554V17.953C23.8099 21.713 21.3905 24.2399 17.7881 24.2399H8.57928C4.97794 24.2399 2.55859 21.713 2.55859 17.953V9.27554C2.55859 5.51554 4.97794 2.98865 8.57928 2.98865H17.7892ZM18.961 14.1988C17.822 13.4882 16.9426 14.4861 16.7054 14.8051C16.4767 15.1133 16.2801 15.4532 16.0728 15.7931C15.5664 16.632 14.9862 17.5992 13.9818 18.1617C12.5222 18.9699 11.4142 18.2253 10.6171 17.6836C10.3179 17.4818 10.0273 17.291 9.73776 17.1638C9.02401 16.8557 8.38185 17.2066 7.42875 18.4172C6.9287 19.0499 6.43292 19.6772 5.93073 20.3022C5.63048 20.6761 5.70207 21.2529 6.10703 21.5029C6.75347 21.901 7.54201 22.1148 8.43313 22.1148H17.3881C17.8935 22.1148 18.4 22.0457 18.883 21.8878C19.9707 21.5325 20.834 20.7189 21.2849 19.6443C21.6653 18.7407 21.8502 17.6441 21.4944 16.7318C21.3757 16.4292 21.1984 16.1473 20.9494 15.8995C20.2966 15.2514 19.6865 14.6461 18.961 14.1988ZM9.46405 7.2389C7.99915 7.2389 6.80885 8.43081 6.80885 9.89531C6.80885 11.3598 7.99915 12.5517 9.46405 12.5517C10.9279 12.5517 12.1192 11.3598 12.1192 9.89531C12.1192 8.43081 10.9279 7.2389 9.46405 7.2389Z" fill="#EFF2F4"/>
</svg>
