<svg width="26" height="27" viewBox="0 0 26 27" fill="none" xmlns="http://www.w3.org/2000/svg">
<path d="M13.9443 3.00439C14.7479 3.00439 15.4755 3.45067 15.8772 4.10946C16.0727 4.42823 16.203 4.82138 16.1704 5.23578C16.1487 5.55455 16.2464 5.87332 16.4202 6.17084C16.974 7.07402 18.2011 7.41404 19.1566 6.904C20.2317 6.28772 21.589 6.65961 22.208 7.71155L22.9356 8.96538C23.5654 10.0173 23.2179 11.3668 22.132 11.9724C21.209 12.5143 20.8832 13.715 21.437 14.6288C21.6108 14.9157 21.8062 15.1601 22.1103 15.3089C22.4903 15.5108 22.7835 15.8295 22.9899 16.1483C23.3916 16.8071 23.3591 17.6147 22.9681 18.3266L22.208 19.6016C21.8062 20.2817 21.057 20.7067 20.286 20.7067C19.9059 20.7067 19.4824 20.6005 19.1349 20.3879C18.8526 20.2073 18.5268 20.1436 18.1793 20.1436C17.1043 20.1436 16.203 21.0255 16.1704 22.0774C16.1704 23.2994 15.1714 24.2557 13.9226 24.2557H12.4458C11.1862 24.2557 10.1872 23.2994 10.1872 22.0774C10.1654 21.0255 9.26414 20.1436 8.1891 20.1436C7.83076 20.1436 7.50499 20.2073 7.23352 20.3879C6.88603 20.6005 6.45167 20.7067 6.08247 20.7067C5.30062 20.7067 4.55135 20.2817 4.14957 19.6016L3.40031 18.3266C2.99852 17.6359 2.97681 16.8071 3.37859 16.1483C3.55233 15.8295 3.8781 15.5108 4.2473 15.3089C4.55135 15.1601 4.74682 14.9157 4.93142 14.6288C5.47437 13.715 5.1486 12.5143 4.22559 11.9724C3.15055 11.3668 2.80306 10.0173 3.42202 8.96538L4.14957 7.71155C4.77939 6.65961 6.1259 6.28772 7.2118 6.904C8.15653 7.41404 9.38359 7.07402 9.93739 6.17084C10.1111 5.87332 10.2089 5.55455 10.1872 5.23578C10.1654 4.82138 10.2849 4.42823 10.4912 4.10946C10.893 3.45067 11.6205 3.02565 12.4132 3.00439H13.9443ZM13.1951 10.6336C11.4902 10.6336 10.1111 11.9724 10.1111 13.6407C10.1111 15.3089 11.4902 16.6371 13.1951 16.6371C14.8999 16.6371 16.2464 15.3089 16.2464 13.6407C16.2464 11.9724 14.8999 10.6336 13.1951 10.6336Z" fill="#EFF2F4"/>
</svg>
